<svg aria-hidden="true" style="position: absolute; width: 0; height: 0; overflow: hidden;" version="1.1" xmlns="http://www.w3.org/2000/svg" xmlns:xlink="http://www.w3.org/1999/xlink">
<defs>
<symbol id="icon-Vector1" viewBox="0 0 34 32">
<path fill="#fff" style="fill: var(--color1, #fff)" d="M33.968 6.968v1.129c0 0.15-0.059 0.293-0.165 0.399s-0.249 0.165-0.399 0.165h-1.694v0.847c0 0.468-0.379 0.847-0.847 0.847h-27.661c-0.468 0-0.847-0.379-0.847-0.847v-0.847h-1.694c-0.15 0-0.293-0.059-0.399-0.165s-0.165-0.249-0.165-0.399v-1.129c0-0.112 0.033-0.221 0.095-0.314s0.15-0.165 0.253-0.208l16.371-6.21c0.138-0.057 0.293-0.057 0.432 0l16.371 6.21c0.103 0.043 0.191 0.115 0.253 0.208s0.095 0.202 0.095 0.314zM32.274 28.419h-30.484c-0.935 0-1.694 0.758-1.694 1.694v1.129c0 0.15 0.059 0.293 0.165 0.399s0.249 0.165 0.399 0.165h32.742c0.15 0 0.293-0.060 0.399-0.165s0.165-0.25 0.165-0.399v-1.129c0-0.935-0.758-1.694-1.694-1.694zM5.742 11.484v13.548h-2.54c-0.468 0-0.847 0.379-0.847 0.847v1.411h29.355v-1.411c0-0.468-0.379-0.847-0.847-0.847h-2.54v-13.548h-4.516v13.548h-4.516v-13.548h-4.516v13.548h-4.516v-13.548h-4.516z"></path>
</symbol>
<symbol id="icon-Vector2" viewBox="0 0 32 32">
<path fill="#fff" style="fill: var(--color1, #fff)" d="M22 6c0-3.314-2.686-6-6-6s-6 2.686-6 6c0 3.314 2.686 6 6 6s6-2.686 6-6zM14.599 15.069c-3.708-2.27-9.714-2.894-12.737-3.066-1.016-0.057-1.863 0.716-1.863 1.693v13.925c0 0.896 0.724 1.643 1.656 1.691 2.729 0.143 8.249 0.667 12.065 2.589 0.586 0.295 1.28-0.107 1.28-0.742v-15.374c-0.001-0.292-0.145-0.559-0.401-0.716zM30.137 12.003c-3.022 0.171-9.029 0.796-12.736 3.066-0.256 0.157-0.401 0.435-0.401 0.727v15.362c0 0.637 0.696 1.039 1.284 0.744 3.815-1.92 9.333-2.444 12.061-2.588 0.931-0.049 1.656-0.796 1.656-1.691v-13.926c-0.001-0.977-0.848-1.751-1.863-1.693z"></path>
</symbol>
<symbol id="icon-Vector3" viewBox="0 0 32 32">
<path fill="#fff" style="fill: var(--color1, #fff)" d="M31.119 8.881l-2.881 2.881c-0.294 0.294-0.769 0.294-1.063 0l-6.938-6.937c-0.294-0.294-0.294-0.769 0-1.063l2.881-2.881c1.169-1.169 3.069-1.169 4.244 0l3.756 3.756c1.175 1.169 1.175 3.069 0 4.244zM17.762 6.237l-16.413 16.412-1.325 7.594c-0.181 1.025 0.713 1.913 1.738 1.738l7.594-1.331 16.412-16.412c0.294-0.294 0.294-0.769 0-1.063l-6.938-6.937c-0.3-0.294-0.775-0.294-1.069 0zM7.756 21.244c-0.344-0.344-0.344-0.894 0-1.238l9.625-9.625c0.344-0.344 0.894-0.344 1.238 0s0.344 0.894 0 1.238l-9.625 9.625c-0.344 0.344-0.894 0.344-1.237 0zM5.5 26.5h3v2.269l-4.031 0.706-1.944-1.944 0.706-4.031h2.269v3z"></path>
</symbol>

<symbol id="book" viewBox="0 0 41 32">
<path fill="#28a745" d="M38.196 0.004c-3.86 0.219-11.533 1.018-16.27 3.923-0.327 0.2-0.512 0.557-0.512 0.929v25.676c0 0.815 0.89 1.33 1.64 0.952 4.873-2.457 11.921-3.127 15.406-3.311 1.19-0.063 2.115-1.018 2.115-2.163v-23.84c0.001-1.25-1.081-2.24-2.379-2.166zM18.649 3.926c-4.736-2.904-12.409-3.703-16.269-3.923-1.298-0.073-2.38 0.917-2.38 2.166v23.84c0 1.146 0.925 2.101 2.115 2.163 3.486 0.183 10.538 0.855 15.411 3.313 0.748 0.378 1.635-0.137 1.635-0.95v-25.694c0-0.373-0.185-0.716-0.512-0.917z"></path>
</symbol>
</defs>
</svg>